HIERARCHY
ROOT Hips
{
  OFFSET 0 0 0
  CHANNELS 6 Xposition Yposition Zposition Zrotation Yrotation Xrotation
  JOINT LeftThigh
  {
    OFFSET 8.409438 0 -5.917753
    CHANNELS 3 Zrotation Yrotation Xrotation
    JOINT LeftLeg
    {
      OFFSET 0 0 -42.358652
      CHANNELS 3 Zrotation Yrotation Xrotation
      JOINT LeftFoot
      {
        OFFSET 0 0 -39.357303
        CHANNELS 3 Zrotation Yrotation Xrotation
      }
    }
  }
  JOINT RightThigh
  {
    OFFSET -8.409438 0 -5.917753
    CHANNELS 3 Zrotation Yrotation Xrotation
    JOINT RightLeg
    {
      OFFSET 0 0 -42.358652
      CHANNELS 3 Zrotation Yrotation Xrotation
      JOINT RightFoot
      {
        OFFSET 0 0 -39.357303
        CHANNELS 3 Zrotation Yrotation Xrotation
      }
    }
  }
  JOINT SpineLow
  {
    OFFSET 0 0 4.719101
    CHANNELS 3 Zrotation Yrotation Xrotation
    JOINT SpineMid
    {
      OFFSET 0 0 12.899191
      CHANNELS 3 Zrotation Yrotation Xrotation
      JOINT Chest
      {
        OFFSET 0 0 12.899191
        CHANNELS 3 Zrotation Yrotation Xrotation
        JOINT LeftShoulder
        {
          OFFSET 7.550562 1.41573 9.438202
          CHANNELS 3 Zrotation Yrotation Xrotation
          JOINT LeftArm
          {
            OFFSET 9.155056 0 4.247191
            CHANNELS 3 Zrotation Yrotation Xrotation
            JOINT LeftForearm
            {
              OFFSET 0 0 25.771955
              CHANNELS 3 Zrotation Yrotation Xrotation
              JOINT LeftHand
              {
                OFFSET 0 0 25.197169
                CHANNELS 3 Zrotation Yrotation Xrotation
              }
            }
          }
        }
        JOINT RightShoulder
        {
          OFFSET -7.550562 1.41573 9.438202
          CHANNELS 3 Zrotation Yrotation Xrotation
          JOINT RightArm
          {
            OFFSET -9.155056 0 4.247191
            CHANNELS 3 Zrotation Yrotation Xrotation
            JOINT RightForearm
            {
              OFFSET 0 0 -25.771955
              CHANNELS 3 Zrotation Yrotation Xrotation
              JOINT RightHand
              {
                OFFSET 0 0 -25.197169
                CHANNELS 3 Zrotation Yrotation Xrotation
              }
            }
          }
        }
        JOINT Neck
        {
          OFFSET 0 0 15.101124
          CHANNELS 3 Zrotation Yrotation Xrotation
          JOINT Head
          {
            OFFSET 0 0 11.325843
            CHANNELS 3 Zrotation Yrotation Xrotation
            End Site
            {
              OFFSET 0 0 14.157303
            }
          }
        }
      }
    }
  }
}
MOTION
Frames: 7
Frame Time: 0.0
0.0  89.887642  0.0  2.336726  27.457484  -89.868974  23.683257  -48.306098  -14.042009  -0.214747  55.233801  46.24747  2.778709  -3.458902  -1.194177  -22.338778  -1.837626  -47.438405  -2.303459  20.817848  48.565404  2.651952  0.182681  -0.597664  -0.579896  -0.21859  0.750755  -1.591736  -0.57939  2.057268  -1.591736  -0.57939  2.057268  -2.468828  17.658702  6.159697  113.863133  43.882754  -156.703973  -21.414303  -12.549826  66.939849  78.130599  41.172582  -21.930004  -4.642979  5.51377  18.878413  18.867984  62.59704  -14.118193  -18.261969  -11.627592  -80.301891  78.558619  28.135787  -18.260569  -23.992782  3.53765  -0.610827  -17.985338  2.682138  -0.319393  
0.0  89.887642  0.0  2.411568  27.431428  -89.772484  23.603615  -48.244518  -13.945413  -0.150609  55.304716  46.086868  2.727452  -3.500851  -1.26461  -22.71781  -1.895576  -47.644341  -2.34742  20.538231  48.508018  2.608066  0.197518  -0.518542  -0.577222  -0.199437  0.74339  -1.583767  -0.527306  2.03665  -1.583767  -0.527306  2.03665  -2.482894  17.686447  6.066138  113.836687  43.916001  -156.816713  -21.368661  -12.486139  66.985022  78.003692  41.150516  -22.125356  -4.491908  5.380562  19.029147  18.092879  62.033363  -14.917638  -18.223749  -11.683353  -80.242342  78.472816  28.157626  -18.410496  -23.957625  3.50373  -0.732301  -17.958438  2.661376  -0.41218  
0.0  89.887642  0.0  2.547203  27.345784  -89.633973  23.030732  -48.083212  -13.482172  -0.064323  55.276219  45.64161  2.911128  -3.432553  -1.225027  -23.619205  -1.992991  -47.973332  -1.811402  19.866988  48.718241  2.568243  0.200778  -0.488435  -0.612576  -0.159588  0.713714  -1.678979  -0.418065  1.954789  -1.678979  -0.418065  1.954789  -2.262023  17.713462  6.094254  114.330876  43.776397  -156.594795  -21.174874  -12.299142  67.060606  78.124525  41.190183  -22.189682  -4.700362  5.203653  19.010079  17.936152  61.409849  -15.412857  -18.520061  -11.702546  -79.979078  78.610487  28.246742  -18.586268  -23.779242  3.524677  -0.822479  -17.82409  2.680345  -0.48011  
0.0  89.887642  0.0  2.666069  27.199091  -89.504436  22.1501  -47.932495  -12.808293  0.677633  55.119531  45.702453  2.890525  -3.45284  -1.285277  -24.307361  -2.324195  -48.181669  -1.573643  19.780746  48.642754  2.795932  0.168114  -0.494998  -0.598649  -0.137273  0.688487  -1.640117  -0.358119  1.885192  -1.640117  -0.358119  1.885192  -2.137664  17.811782  6.155608  114.586156  43.913252  -156.566446  -21.344742  -11.933457  67.078413  78.373009  41.146056  -21.951932  -4.469456  5.090956  19.175771  17.387798  60.728827  -15.956657  -18.362537  -11.716709  -79.931832  78.634447  28.3338  -18.644907  -23.716929  3.57364  -0.883364  -17.776796  2.719393  -0.524279  
0.0  89.887642  0.0  2.805255  27.122883  -89.374664  21.017091  -47.708959  -12.06539  1.310226  54.943647  45.575894  3.040398  -3.402103  -1.249106  -25.083218  -2.80085  -48.274204  -1.266379  19.885749  48.467333  3.047814  0.114836  -0.547605  -0.618543  -0.098299  0.651955  -1.693242  -0.251974  1.784443  -1.693242  -0.251974  1.784443  -1.913676  17.84743  6.249773  114.79687  43.940478  -156.338786  -21.398125  -11.523869  67.128983  78.602476  41.379719  -22.067251  -4.436107  4.806182  19.283931  17.409495  60.266837  -16.131848  -18.816941  -11.692418  -79.608306  78.44738  28.434355  -19.20451  -23.590403  3.646062  -0.892294  -17.681539  2.773914  -0.528899  
0.0  89.887642  0.0  2.868089  26.911621  -89.346718  20.093169  -47.592573  -11.416339  2.214363  54.76175  45.851014  3.061789  -3.422274  -1.276915  -25.732466  -3.165585  -48.264365  -1.160704  20.063703  48.198375  3.510228  0.026614  -0.529563  -0.590662  -0.077606  0.632337  -1.616422  -0.196655  1.730211  -1.616422  -0.196655  1.730211  -1.823723  17.928193  6.340158  115.143266  44.086016  -156.281709  -21.541037  -11.196786  67.130182  78.84879  41.374706  -21.856044  -4.267059  4.692755  19.469564  17.175189  59.768498  -16.449782  -18.7594  -11.711764  -79.525661  78.382945  28.44513  -19.160758  -23.552905  3.725173  -0.882499  -17.653104  2.832902  -0.518687  
0.0  89.887642  0.0  2.898625  26.757477  -89.360602  19.555172  -47.496175  -10.910848  2.424961  54.648008  45.7085  3.144839  -3.383668  -1.287969  -26.362949  -3.485483  -48.223198  -1.155265  20.241613  47.911789  3.950431  -0.067581  -0.47921  -0.585957  -0.070206  0.610885  -1.603315  -0.177075  1.671385  -1.603315  -0.177075  1.671385  -1.648975  18.033379  6.431283  115.409208  44.186467  -156.233834  -21.663895  -10.945528  67.108182  79.013538  41.409175  -21.790703  -4.069095  4.524152  19.65568  17.080539  59.525028  -16.592316  -19.162957  -11.72609  -79.195637  78.209335  28.458248  -19.407749  -23.488592  3.863983  -0.873637  -17.604267  2.936728  -0.507032  
